<svg version="1.1" id="Layer_1" xmlns="http://www.w3.org/2000/svg" xmlns:xlink="http://www.w3.org/1999/xlink" x="0px" y="0px"
	 width="100%" viewBox="0 0 128 128" enable-background="new 0 0 128 128" xml:space="preserve">
<path fill="#FFFD00" opacity="1.000000" stroke="none" 
	d="
M1.000000,123.000000 
	C1.000000,84.645775 1.000000,46.291542 1.266894,7.790198 
	C3.355858,5.428722 5.177929,3.214361 7.000000,1.000000 
	C45.354229,1.000000 83.708458,1.000000 122.209801,1.266895 
	C124.571274,3.355860 126.785637,5.177931 129.000000,7.000001 
	C129.000000,45.354229 129.000000,83.708458 128.746948,122.211487 
	C126.662605,124.573532 124.831306,126.786774 123.000000,129.000000 
	C84.645775,129.000000 46.291542,129.000000 7.789256,128.730652 
	C5.427464,126.640862 3.213732,124.820427 1.000000,123.000000 
M85.452568,11.893771 
	C67.259621,4.316650 53.330208,11.587316 41.294483,25.113298 
	C39.119965,23.080635 37.406586,21.251200 35.445137,19.744757 
	C34.509686,19.026308 33.102737,18.921768 31.909361,18.539150 
	C31.563572,19.893047 30.684744,21.382565 30.987249,22.571514 
	C31.549896,24.782917 32.460533,27.083393 33.844719,28.866808 
	C35.956264,31.587366 36.033154,33.768333 34.433094,36.913986 
	C29.434519,46.740990 27.286034,57.290516 27.853237,68.345680 
	C28.371469,78.446373 33.843582,85.903526 43.410988,88.716972 
	C51.110989,90.981277 58.957661,91.849068 66.787689,88.153015 
	C67.241852,91.921219 64.957001,92.423889 62.362103,93.053299 
	C53.347206,95.239868 44.183308,97.056992 35.453514,100.098091 
	C28.238947,102.611351 27.103424,109.568947 32.285187,115.317322 
	C33.908047,117.117638 36.075352,118.670319 38.296406,119.648354 
	C51.589813,125.502037 71.436096,121.310249 75.965340,103.106880 
	C76.870117,99.470497 78.657379,97.216423 82.270271,95.569458 
	C90.464157,91.834206 97.184242,86.111992 101.426811,77.976173 
	C103.237640,74.503616 104.730560,70.794434 102.265808,66.150398 
	C95.870819,72.450249 89.815826,78.415169 83.760826,84.380089 
	C83.655869,79.314484 84.547127,74.974815 85.554787,70.662346 
	C86.683769,65.830673 85.104240,61.763302 82.041634,58.185345 
	C78.810951,54.411015 74.855545,54.860321 73.166695,59.502121 
	C71.759171,63.370678 71.469139,67.632751 70.283272,71.600731 
	C69.721527,73.480354 68.630493,75.742546 67.080795,76.695229 
	C59.165356,81.561241 48.064213,77.154175 45.788254,68.238762 
	C43.340488,58.650326 45.365856,49.513592 49.210518,40.378124 
	C51.137459,40.938896 52.681034,41.682018 54.270905,41.799686 
	C60.997635,42.297539 67.830437,43.471954 74.449455,42.763615 
	C82.148071,41.939735 88.240456,37.394085 90.407066,29.530342 
	C92.142288,23.232321 92.057373,16.890041 85.452568,11.893771 
z"/>
<path fill="#000000" opacity="1.000000" stroke="none" 
	d="
M123.499481,129.000000 
	C124.831306,126.786774 126.662605,124.573532 128.746948,122.680145 
	C129.000000,124.913231 129.000000,126.826454 129.000000,129.000000 
	C127.336571,129.000000 125.667763,129.000000 123.499481,129.000000 
z"/>
<path fill="#000000" opacity="1.000000" stroke="none" 
	d="
M6.500528,1.000000 
	C5.177929,3.214361 3.355858,5.428722 1.266894,7.321541 
	C1.000000,5.086773 1.000000,3.173546 1.000000,1.000000 
	C2.663430,1.000000 4.332244,1.000000 6.500528,1.000000 
z"/>
<path fill="#000000" opacity="1.000000" stroke="none" 
	d="
M129.000000,6.500529 
	C126.785637,5.177931 124.571274,3.355860 122.678459,1.266895 
	C124.913231,1.000000 126.826454,1.000000 129.000000,1.000000 
	C129.000000,2.663430 129.000000,4.332244 129.000000,6.500529 
z"/>
<path fill="#000000" opacity="1.000000" stroke="none" 
	d="
M1.000000,123.499474 
	C3.213732,124.820427 5.427464,126.640862 7.320599,128.730652 
	C5.086773,129.000000 3.173547,129.000000 1.000000,129.000000 
	C1.000000,127.336571 1.000000,125.667763 1.000000,123.499474 
z"/>
<path fill="#FF0600" opacity="1.000000" stroke="none" 
	d="
M85.782776,12.078979 
	C92.057373,16.890041 92.142288,23.232321 90.407066,29.530342 
	C88.240456,37.394085 82.148071,41.939735 74.449455,42.763615 
	C67.830437,43.471954 60.997635,42.297539 54.270905,41.799686 
	C52.681034,41.682018 51.137459,40.938896 49.210518,40.378124 
	C45.365856,49.513592 43.340488,58.650326 45.788254,68.238762 
	C48.064213,77.154175 59.165356,81.561241 67.080795,76.695229 
	C68.630493,75.742546 69.721527,73.480354 70.283272,71.600731 
	C71.469139,67.632751 71.759171,63.370678 73.166695,59.502121 
	C74.855545,54.860321 78.810951,54.411015 82.041634,58.185345 
	C85.104240,61.763302 86.683769,65.830673 85.554787,70.662346 
	C84.547127,74.974815 83.655869,79.314484 83.760826,84.380089 
	C89.815826,78.415169 95.870819,72.450249 102.265808,66.150398 
	C104.730560,70.794434 103.237640,74.503616 101.426811,77.976173 
	C97.184242,86.111992 90.464157,91.834206 82.270271,95.569458 
	C78.657379,97.216423 76.870117,99.470497 75.965340,103.106880 
	C71.436096,121.310249 51.589813,125.502037 38.296406,119.648354 
	C36.075352,118.670319 33.908047,117.117638 32.285187,115.317322 
	C27.103424,109.568947 28.238947,102.611351 35.453514,100.098091 
	C44.183308,97.056992 53.347206,95.239868 62.362103,93.053299 
	C64.957001,92.423889 67.241852,91.921219 66.787689,88.153015 
	C58.957661,91.849068 51.110989,90.981277 43.410988,88.716972 
	C33.843582,85.903526 28.371469,78.446373 27.853237,68.345680 
	C27.286034,57.290516 29.434519,46.740990 34.433094,36.913986 
	C36.033154,33.768333 35.956264,31.587366 33.844719,28.866808 
	C32.460533,27.083393 31.549896,24.782917 30.987249,22.571514 
	C30.684744,21.382565 31.563572,19.893047 31.909359,18.539150 
	C33.102737,18.921768 34.509686,19.026308 35.445137,19.744757 
	C37.406586,21.251200 39.119965,23.080635 41.294483,25.113298 
	C53.330208,11.587316 67.259621,4.316650 85.782776,12.078979 
M63.494362,21.680208 
	C59.827854,25.034561 56.161343,28.388914 52.494835,31.743267 
	C52.757160,32.297142 53.019485,32.851013 53.281811,33.404884 
	C56.978386,33.990620 60.664062,34.660492 64.374268,35.141026 
	C69.126205,35.756477 73.984924,35.604420 76.973122,31.348894 
	C78.388733,29.332909 79.245354,25.877155 78.497734,23.716373 
	C77.884995,21.945408 74.624138,20.392872 72.351830,20.077093 
	C69.730255,19.712782 66.905342,20.811689 63.494362,21.680208 
M40.895542,108.211014 
	C39.223133,111.201836 41.548660,112.086609 43.536972,112.829559 
	C51.377213,115.759178 59.045357,111.482315 61.333603,102.404549 
	C54.487778,104.239113 47.978035,105.983612 40.895542,108.211014 
z"/>
<path fill="#FFFA00" opacity="1.000000" stroke="none" 
	d="
M63.831547,21.477707 
	C66.905342,20.811689 69.730255,19.712782 72.351830,20.077093 
	C74.624138,20.392872 77.884995,21.945408 78.497734,23.716373 
	C79.245354,25.877155 78.388733,29.332909 76.973122,31.348894 
	C73.984924,35.604420 69.126205,35.756477 64.374268,35.141026 
	C60.664062,34.660492 56.978386,33.990620 53.281811,33.404884 
	C53.019485,32.851013 52.757160,32.297142 52.494835,31.743267 
	C56.161343,28.388914 59.827854,25.034561 63.831547,21.477707 
z"/>
<path fill="#FFF200" opacity="1.000000" stroke="none" 
	d="
M41.181915,107.969559 
	C47.978035,105.983612 54.487778,104.239113 61.333603,102.404549 
	C59.045357,111.482315 51.377213,115.759178 43.536972,112.829559 
	C41.548660,112.086609 39.223133,111.201836 41.181915,107.969559 
z"/>
</svg>